<svg width="51" height="36" viewBox="0 0 51 36" fill="none" xmlns="http://www.w3.org/2000/svg">
<path d="M12.0234 6.31738C10.3314 6.31738 8.89388 7.32064 7.71094 9.32715C6.61784 11.1839 6.07129 14.1263 6.07129 18.1543C6.07129 19.7865 6.15365 21.2389 6.31836 22.5117L16.1113 8.94531C15.0033 7.19336 13.6406 6.31738 12.0234 6.31738ZM12.0234 35.4492C7.75586 35.4492 4.58138 33.6074 2.5 29.9238C0.837891 26.9889 0.00683594 23.0658 0.00683594 18.1543C0.00683594 13.2428 0.837891 9.31966 2.5 6.38477C4.58138 2.70117 7.75586 0.859375 12.0234 0.859375C16.3359 0.859375 19.5104 2.70866 21.5469 6.40723C23.209 9.41699 24.04 13.3327 24.04 18.1543C24.04 22.946 23.209 26.8542 21.5469 29.8789C19.4954 33.5775 16.321 35.4342 12.0234 35.4492ZM17.751 14.1113L7.95801 27.3857C9.12598 29.1227 10.4811 29.9912 12.0234 29.9912C13.7454 29.9912 15.1829 28.988 16.3359 26.9814C17.429 25.0947 17.9756 22.1523 17.9756 18.1543C17.9756 16.6569 17.9007 15.3092 17.751 14.1113ZM29.8125 35V29.3848H37.3145V7.82227L29.8125 15.9082V9.16992L37.0898 1.30859H43.1543V29.3848H50.4316V35H29.8125Z" fill="#E3E3E3"/>
</svg>
