<svg width="51" height="36" viewBox="0 0 51 36" fill="none" xmlns="http://www.w3.org/2000/svg">
<path d="M12.0234 6.31738C10.3314 6.31738 8.89388 7.32064 7.71094 9.32715C6.61784 11.1839 6.07129 14.1263 6.07129 18.1543C6.07129 19.7865 6.15365 21.2389 6.31836 22.5117L16.1113 8.94531C15.0033 7.19336 13.6406 6.31738 12.0234 6.31738ZM12.0234 35.4492C7.75586 35.4492 4.58138 33.6074 2.5 29.9238C0.837891 26.9889 0.00683594 23.0658 0.00683594 18.1543C0.00683594 13.2428 0.837891 9.31966 2.5 6.38477C4.58138 2.70117 7.75586 0.859375 12.0234 0.859375C16.3359 0.859375 19.5104 2.70866 21.5469 6.40723C23.209 9.41699 24.04 13.3327 24.04 18.1543C24.04 22.946 23.209 26.8542 21.5469 29.8789C19.4954 33.5775 16.321 35.4342 12.0234 35.4492ZM17.751 14.1113L7.95801 27.3857C9.12598 29.1227 10.4811 29.9912 12.0234 29.9912C13.7454 29.9912 15.1829 28.988 16.3359 26.9814C17.429 25.0947 17.9756 22.1523 17.9756 18.1543C17.9756 16.6569 17.9007 15.3092 17.751 14.1113ZM27.8584 35V30.6875C27.8883 28.2018 29.4382 25.7461 32.5078 23.3203L40.6162 16.9414C42.8923 15.1595 44.0303 13.4076 44.0303 11.6855C44.0303 10.1732 43.6335 8.93783 42.8398 7.97949C41.9264 6.87142 40.6387 6.31738 38.9766 6.31738C37.4043 6.31738 36.1315 6.92383 35.1582 8.13672C34.3346 9.1849 33.9229 10.4951 33.9229 12.0674H27.8584C27.8584 8.9528 28.8167 6.37728 30.7334 4.34082C32.9346 2.01986 35.6823 0.859375 38.9766 0.859375C42.5104 0.859375 45.2806 1.9375 47.2871 4.09375C49.1589 6.10026 50.0947 8.51107 50.0947 11.3262C50.0947 14.6204 48.3577 17.6227 44.8838 20.333L35.832 27.4082C34.9935 28.0671 34.4245 28.7259 34.125 29.3848H50.0947V35H27.8584Z" fill="#E3E3E3"/>
</svg>
