<svg width="51" height="36" viewBox="0 0 51 36" fill="none" xmlns="http://www.w3.org/2000/svg">
<path d="M12.0234 6.31738C10.3314 6.31738 8.89388 7.32064 7.71094 9.32715C6.61784 11.1839 6.07129 14.1263 6.07129 18.1543C6.07129 19.7865 6.15365 21.2389 6.31836 22.5117L16.1113 8.94531C15.0033 7.19336 13.6406 6.31738 12.0234 6.31738ZM12.0234 35.4492C7.75586 35.4492 4.58138 33.6074 2.5 29.9238C0.837891 26.9889 0.00683594 23.0658 0.00683594 18.1543C0.00683594 13.2428 0.837891 9.31966 2.5 6.38477C4.58138 2.70117 7.75586 0.859375 12.0234 0.859375C16.3359 0.859375 19.5104 2.70866 21.5469 6.40723C23.209 9.41699 24.04 13.3327 24.04 18.1543C24.04 22.946 23.209 26.8542 21.5469 29.8789C19.4954 33.5775 16.321 35.4342 12.0234 35.4492ZM17.751 14.1113L7.95801 27.3857C9.12598 29.1227 10.4811 29.9912 12.0234 29.9912C13.7454 29.9912 15.1829 28.988 16.3359 26.9814C17.429 25.0947 17.9756 22.1523 17.9756 18.1543C17.9756 16.6569 17.9007 15.3092 17.751 14.1113ZM27.8584 24.2412H33.9229C33.9229 25.8584 34.3197 27.1686 35.1133 28.1719C36.1016 29.3997 37.3893 30.0137 38.9766 30.0137C40.6836 30.0137 41.9714 29.4671 42.8398 28.374C43.6335 27.3708 44.0303 26.1579 44.0303 24.7354C44.0303 23.2979 43.5137 22.0326 42.4805 20.9395C41.4922 19.8913 39.8525 19.3672 37.5615 19.3672V13.8643C39.5081 13.8643 40.8333 13.5872 41.5371 13.0332C42.3757 12.3743 42.7949 11.416 42.7949 10.1582C42.7949 9.0651 42.3831 8.12923 41.5596 7.35059C40.8708 6.69173 39.9424 6.3623 38.7744 6.3623C37.6364 6.3623 36.6631 6.74414 35.8545 7.50781C35.1208 8.19661 34.7464 9.13997 34.7314 10.3379H28.9365C28.9365 7.56771 29.8424 5.31413 31.6543 3.57715C33.541 1.7653 35.8994 0.859375 38.7295 0.859375C41.5596 0.859375 43.918 1.71289 45.8047 3.41992C47.6764 5.11198 48.6123 7.24577 48.6123 9.82129C48.6123 12.6514 47.4893 14.875 45.2432 16.4922C48.4775 18.4238 50.0947 21.2165 50.0947 24.8701C50.0947 27.6553 49.1214 30.0885 47.1748 32.1699C45.1084 34.3561 42.3757 35.4492 38.9766 35.4492C35.5775 35.4492 32.8073 34.2962 30.666 31.9902C28.7943 29.9538 27.8584 27.3708 27.8584 24.2412Z" fill="#E3E3E3"/>
</svg>
