<svg width="50" height="36" viewBox="0 0 50 36" fill="none" xmlns="http://www.w3.org/2000/svg">
<path d="M12.5234 6.31738C10.8314 6.31738 9.39388 7.32064 8.21094 9.32715C7.11784 11.1839 6.57129 14.1263 6.57129 18.1543C6.57129 19.7865 6.65365 21.2389 6.81836 22.5117L16.6113 8.94531C15.5033 7.19336 14.1406 6.31738 12.5234 6.31738ZM12.5234 35.4492C8.25586 35.4492 5.08138 33.6074 3 29.9238C1.33789 26.9889 0.506836 23.0658 0.506836 18.1543C0.506836 13.2428 1.33789 9.31966 3 6.38477C5.08138 2.70117 8.25586 0.859375 12.5234 0.859375C16.8359 0.859375 20.0104 2.70866 22.0469 6.40723C23.709 9.41699 24.54 13.3327 24.54 18.1543C24.54 22.946 23.709 26.8542 22.0469 29.8789C19.9954 33.5775 16.821 35.4342 12.5234 35.4492ZM18.251 14.1113L8.45801 27.3857C9.62598 29.1227 10.9811 29.9912 12.5234 29.9912C14.2454 29.9912 15.6829 28.988 16.8359 26.9814C17.929 25.0947 18.4756 22.1523 18.4756 18.1543C18.4756 16.6569 18.4007 15.3092 18.251 14.1113ZM43.5195 35V28.8008H27.5723C30.4772 18.319 35.793 9.15495 43.5195 1.30859H49.584V35H43.5195ZM43.5195 8.81055C40.2103 13.0781 37.4401 17.8698 35.209 23.1855H43.5195V8.81055Z" fill="#E3E3E3"/>
</svg>
