<svg width="51" height="36" viewBox="0 0 51 36" fill="none" xmlns="http://www.w3.org/2000/svg">
<path d="M12.0234 6.31738C10.3314 6.31738 8.89388 7.32064 7.71094 9.32715C6.61784 11.1839 6.07129 14.1263 6.07129 18.1543C6.07129 19.7865 6.15365 21.2389 6.31836 22.5117L16.1113 8.94531C15.0033 7.19336 13.6406 6.31738 12.0234 6.31738ZM12.0234 35.4492C7.75586 35.4492 4.58138 33.6074 2.5 29.9238C0.837891 26.9889 0.00683594 23.0658 0.00683594 18.1543C0.00683594 13.2428 0.837891 9.31966 2.5 6.38477C4.58138 2.70117 7.75586 0.859375 12.0234 0.859375C16.3359 0.859375 19.5104 2.70866 21.5469 6.40723C23.209 9.41699 24.04 13.3327 24.04 18.1543C24.04 22.946 23.209 26.8542 21.5469 29.8789C19.4954 33.5775 16.321 35.4342 12.0234 35.4492ZM17.751 14.1113L7.95801 27.3857C9.12598 29.1227 10.4811 29.9912 12.0234 29.9912C13.7454 29.9912 15.1829 28.988 16.3359 26.9814C17.429 25.0947 17.9756 22.1523 17.9756 18.1543C17.9756 16.6569 17.9007 15.3092 17.751 14.1113ZM27.8584 24.2412H33.9229C33.9229 25.9333 34.2972 27.236 35.0459 28.1494C36.0342 29.3623 37.3444 29.9762 38.9766 29.9912C40.5189 29.9912 41.7842 29.3324 42.7725 28.0146C43.611 26.8916 44.0303 25.3643 44.0303 23.4326C44.0303 21.8304 43.596 20.4378 42.7275 19.2549C41.7542 17.9222 40.5039 17.2559 38.9766 17.2559C37.3893 17.2559 36.0866 18.057 35.0684 19.6592L29.7676 16.7617L32.2832 1.30859H48.0059V6.92383H37.2471L36.3262 12.292C37.2096 11.9626 38.138 11.7979 39.1113 11.7979C42.4805 11.7979 45.1234 12.8685 47.04 15.0098C49.0765 17.2858 50.0947 20.1084 50.0947 23.4775C50.0947 26.7269 49.1963 29.4671 47.3994 31.6982C45.3779 34.1989 42.5703 35.4492 38.9766 35.4492C35.5176 35.4492 32.7025 34.2663 30.5312 31.9004C28.7493 29.9388 27.8584 27.3857 27.8584 24.2412Z" fill="#E3E3E3"/>
</svg>
