<svg width="82" height="86" viewBox="0 0 82 86" fill="none" xmlns="http://www.w3.org/2000/svg">
<g clip-path="url(#clip0_2007_233)">
<path d="M8.2597 28.3105V66.3382C8.2597 67.8938 8.87931 69.3856 9.9822 70.4856C11.0851 71.5855 12.5809 72.2035 14.1407 72.2035H25.455C25.0878 69.3805 25.3285 66.5119 26.1609 63.7891C26.9934 61.0662 28.3985 58.5517 30.2825 56.4133C32.1664 54.2749 34.486 52.5618 37.0864 51.3882C39.6868 50.2146 42.5082 49.6076 45.3625 49.6076C48.2167 49.6076 51.0382 50.2146 53.6385 51.3882C56.2389 52.5618 58.5585 54.2749 60.4425 56.4133C62.3265 58.5517 63.7316 61.0662 64.564 63.7891C65.3965 66.5119 65.6371 69.3805 65.27 72.2035H76.1103C77.67 72.2035 79.1659 71.5855 80.2688 70.4856C81.3717 69.3856 81.9912 67.8938 81.9912 66.3382V28.3105C81.9912 26.755 81.3717 25.2631 80.2688 24.1632C79.1659 23.0633 77.67 22.4453 76.1103 22.4453H14.1495C13.3764 22.4442 12.6107 22.595 11.8962 22.8893C11.1817 23.1835 10.5323 23.6154 9.9853 24.1601C9.43827 24.7049 9.0043 25.3518 8.70821 26.064C8.41211 26.7762 8.2597 27.5396 8.2597 28.3105Z" fill="#FCB715"/>
<path d="M38.8846 84.2491C49.9713 84.2491 58.9589 75.2856 58.9589 64.2286C58.9589 53.1715 49.9713 44.208 38.8846 44.208C27.7979 44.208 18.8103 53.1715 18.8103 64.2286C18.8103 75.2856 27.7979 84.2491 38.8846 84.2491Z" stroke="#231F20" stroke-width="4" stroke-linecap="round" stroke-linejoin="round"/>
<path d="M38.8846 53.9951V65.8656L44.7392 71.477" stroke="#231F20" stroke-width="4" stroke-linecap="round" stroke-linejoin="round"/>
<path d="M58.9589 66.6972H75.487V7.1958H1.75549V66.6972H18.9683" stroke="#231F20" stroke-width="4" stroke-linecap="round" stroke-linejoin="round"/>
<path d="M2.6947 22.0339H75.4958" stroke="#231F20" stroke-width="4" stroke-linecap="round" stroke-linejoin="round"/>
<path d="M57.6335 12.4657V1.75073" stroke="#231F20" stroke-width="4" stroke-linecap="round" stroke-linejoin="round"/>
<path d="M38.788 12.4657V1.75073" stroke="#231F20" stroke-width="4" stroke-linecap="round" stroke-linejoin="round"/>
<path d="M20.9257 12.4657V1.75073" stroke="#231F20" stroke-width="4" stroke-linecap="round" stroke-linejoin="round"/>
</g>
<defs>
<clipPath id="clip0_2007_233">
<rect width="82" height="86" fill="white"/>
</clipPath>
</defs>
</svg>
