<svg width="74" height="86" viewBox="0 0 74 86" fill="none" xmlns="http://www.w3.org/2000/svg">
<g clip-path="url(#clip0_2007_167)">
<path d="M41.3892 78.7204C56.2978 78.7204 68.3836 66.6793 68.3836 51.8259C68.3836 36.9725 56.2978 24.9314 41.3892 24.9314C26.4805 24.9314 14.3947 36.9725 14.3947 51.8259C14.3947 66.6793 26.4805 78.7204 41.3892 78.7204Z" fill="#FCB715"/>
<path d="M37 53.2497C39.0037 53.2497 40.628 51.6314 40.628 49.6351C40.628 47.6388 39.0037 46.0205 37 46.0205C34.9963 46.0205 33.372 47.6388 33.372 49.6351C33.372 51.6314 34.9963 53.2497 37 53.2497Z" stroke="#231F20" stroke-width="4" stroke-linecap="round" stroke-linejoin="round"/>
<path d="M37 34.7051V46.0206" stroke="#231F20" stroke-width="4" stroke-linecap="round" stroke-linejoin="round"/>
<path d="M37 76.5297C51.9086 76.5297 63.9944 64.4886 63.9944 49.6352C63.9944 34.7818 51.9086 22.7407 37 22.7407C22.0914 22.7407 10.0056 34.7818 10.0056 49.6352C10.0056 64.4886 22.0914 76.5297 37 76.5297Z" stroke="#231F20" stroke-width="4" stroke-linecap="round" stroke-linejoin="round"/>
<path d="M37 84.3148C56.2243 84.3148 71.8086 68.7881 71.8086 49.6351C71.8086 30.482 56.2243 14.9553 37 14.9553C17.7758 14.9553 2.19141 30.482 2.19141 49.6351C2.19141 68.7881 17.7758 84.3148 37 84.3148Z" stroke="#231F20" stroke-width="4" stroke-linecap="round" stroke-linejoin="round"/>
<path d="M37 22.749V26.7175" stroke="#231F20" stroke-width="4" stroke-linecap="round" stroke-linejoin="round"/>
<path d="M37 72.5527V76.5296" stroke="#231F20" stroke-width="4" stroke-linecap="round" stroke-linejoin="round"/>
<path d="M63.986 49.6353H60.0028" stroke="#231F20" stroke-width="4" stroke-linecap="round" stroke-linejoin="round"/>
<path d="M13.9972 49.6353H10.0056" stroke="#231F20" stroke-width="4" stroke-linecap="round" stroke-linejoin="round"/>
<path d="M56.0872 30.627L53.2626 33.4327" stroke="#231F20" stroke-width="4" stroke-linecap="round" stroke-linejoin="round"/>
<path d="M20.7374 65.8459L17.9128 68.6517" stroke="#231F20" stroke-width="4" stroke-linecap="round" stroke-linejoin="round"/>
<path d="M56.0872 68.6517L53.2626 65.8459" stroke="#231F20" stroke-width="4" stroke-linecap="round" stroke-linejoin="round"/>
<path d="M20.7374 33.4327L17.9128 30.627" stroke="#231F20" stroke-width="4" stroke-linecap="round" stroke-linejoin="round"/>
<path d="M33.0084 8.948V13.8517" stroke="#231F20" stroke-width="4" stroke-linecap="round" stroke-linejoin="round"/>
<path d="M40.9916 13.8517V8.948" stroke="#231F20" stroke-width="4" stroke-linecap="round" stroke-linejoin="round"/>
<path d="M46.5732 1.68506H27.4268V8.65302H46.5732V1.68506Z" stroke="#231F20" stroke-width="4" stroke-linecap="round" stroke-linejoin="round"/>
</g>
<defs>
<clipPath id="clip0_2007_167">
<rect width="73" height="86" fill="white" transform="translate(0.5)"/>
</clipPath>
</defs>
</svg>
