<svg width="66" height="86" viewBox="0 0 66 86" fill="none" xmlns="http://www.w3.org/2000/svg">
<g clip-path="url(#clip0_2007_90)">
<path d="M62.2389 63.1971C61.929 62.2703 61.3304 61.4676 60.5312 60.9071C59.732 60.3466 58.7744 60.0579 57.7992 60.0834H57.7071C58.3941 59.6579 58.9552 59.0562 59.3322 58.3406C59.7092 57.6249 59.8885 56.8213 59.8515 56.0129C59.7598 54.8183 59.2163 53.7039 58.3319 52.8974C57.4476 52.0909 56.2892 51.6532 55.0935 51.6739H38.4574C40.769 47.3164 42.5547 42.6987 43.7766 37.9183C44.0784 36.8823 44.0043 35.7728 43.5672 34.7864C43.1302 33.8001 42.3586 33.0007 41.3892 32.5301C40.8526 32.2595 40.2671 32.0997 39.6676 32.0603C39.0681 32.0209 38.4668 32.1027 37.8994 32.3007C37.3321 32.4988 36.8103 32.8092 36.3651 33.2134C35.9199 33.6175 35.5603 34.1073 35.3078 34.6535C31.147 41.9353 26.0339 48.6276 20.1041 54.5526C18.8213 55.8564 17.9202 57.4878 17.4989 59.2693H8.37668C7.95235 59.2693 7.5454 59.4382 7.24535 59.7388C6.9453 60.0394 6.77673 60.4471 6.77673 60.8723V79.8566C6.77895 80.2803 6.94849 80.6858 7.2483 80.9847C7.54811 81.2835 7.9538 81.4512 8.37668 81.4512H18.9983C19.9386 82.8466 21.2063 83.9895 22.6901 84.7796C24.1739 85.5698 25.8286 85.9831 27.5091 85.9832H50.4445C51.6348 86.0045 52.7886 85.5715 53.6721 84.772C54.5556 83.9725 55.1027 82.8664 55.2024 81.6778C55.2458 80.878 55.0772 80.081 54.7138 79.3676C54.3505 78.6542 53.8052 78.0498 53.1334 77.6157V77.5654H54.281C55.4781 77.5882 56.6386 77.1515 57.5247 76.3448C58.4109 75.5381 58.9556 74.4224 59.0473 73.2263C59.0844 72.418 58.9051 71.6143 58.5281 70.8987C58.151 70.183 57.5899 69.5813 56.9029 69.1559H57.9165C58.6332 69.155 59.3396 68.9844 59.978 68.658C60.6164 68.3317 61.1689 67.8587 61.5902 67.2779C62.0116 66.697 62.29 66.0245 62.4027 65.3153C62.5154 64.6062 62.4593 63.8804 62.2389 63.1971Z" fill="#FCB715"/>
<path d="M59.0474 60.2763C59.0474 59.0699 58.569 57.9129 57.7176 57.0598C56.8661 56.2068 55.7113 55.7275 54.5072 55.7275H54.2894C55.1178 55.2024 55.7543 54.4227 56.1038 53.5051C56.4532 52.5875 56.4969 51.5812 56.2282 50.6367C55.9595 49.6922 55.3929 48.8601 54.6132 48.265C53.8334 47.6698 52.8823 47.3435 51.902 47.3348H34.9979C37.319 42.9651 39.1103 38.333 40.3338 33.5372C40.6357 32.5013 40.5615 31.3917 40.1244 30.4054C39.6874 29.419 38.9158 28.6196 37.9465 28.1491C37.4093 27.8725 36.8218 27.7075 36.2194 27.6641C35.617 27.6208 35.012 27.6998 34.4409 27.8966C33.8697 28.0933 33.3441 28.4037 32.8957 28.8091C32.4473 29.2145 32.0853 29.7066 31.8315 30.2557C27.6914 37.5458 22.598 44.2493 16.6864 50.1883C15.3966 51.4981 14.4922 53.1388 14.0729 54.9302H3.35071V77.0953H15.5723C16.5115 78.495 17.7796 79.6419 19.2652 80.4351C20.7507 81.2283 22.4081 81.6435 24.0914 81.6442H47.2446C48.2248 81.6355 49.1759 81.3092 49.9557 80.714C50.7355 80.1188 51.3021 79.2868 51.5707 78.3423C51.8394 77.3977 51.7958 76.3915 51.4463 75.4738C51.0968 74.5562 50.4603 73.7766 49.632 73.2515H51.0979C52.0781 73.2428 53.0292 72.9165 53.809 72.3213C54.5888 71.7261 55.1554 70.8941 55.424 69.9496C55.6927 69.005 55.6491 67.9988 55.2996 67.0811C54.9501 66.1635 54.3136 65.3839 53.4852 64.8588H54.4988C55.7029 64.8588 56.8578 64.3795 57.7092 63.5264C58.5607 62.6734 59.039 61.5163 59.039 60.3099L59.0474 60.2763Z" stroke="#231F20" stroke-width="4" stroke-linecap="round" stroke-linejoin="round"/>
<path d="M14.0729 54.9219V77.0954" stroke="#231F20" stroke-width="4" stroke-linecap="round" stroke-linejoin="round"/>
<path d="M15.8571 34.8464H1.67535" stroke="#231F20" stroke-width="4" stroke-linecap="round" stroke-linejoin="round"/>
<path d="M64.3246 34.8464H50.1429" stroke="#231F20" stroke-width="4" stroke-linecap="round" stroke-linejoin="round"/>
<path d="M35.1654 1.67859V15.8874" stroke="#231F20" stroke-width="4" stroke-linecap="round" stroke-linejoin="round"/>
<path d="M57.5228 12.4464L47.4875 22.4925" stroke="#231F20" stroke-width="4" stroke-linecap="round" stroke-linejoin="round"/>
<path d="M12.808 12.4464L22.8433 22.4925" stroke="#231F20" stroke-width="4" stroke-linecap="round" stroke-linejoin="round"/>
</g>
<defs>
<clipPath id="clip0_2007_90">
<rect width="66" height="86" fill="white"/>
</clipPath>
</defs>
</svg>
