<svg width="72" height="86" viewBox="0 0 72 86" fill="none" xmlns="http://www.w3.org/2000/svg">
<g clip-path="url(#clip0_2007_140)">
<path d="M34.1311 58.7049C28.9494 58.7049 23.884 57.1646 19.5756 54.2789C15.2671 51.3932 11.9091 47.2916 9.92614 42.4928C7.94318 37.694 7.42434 32.4135 8.43525 27.3191C9.44615 22.2248 11.9414 17.5453 15.6054 13.8725C19.2695 10.1996 23.9377 7.69839 29.0199 6.68505C34.102 5.67172 39.3698 6.1918 44.1571 8.17952C48.9444 10.1672 53.0362 13.5333 55.915 17.8521C58.7938 22.1709 60.3304 27.2485 60.3304 32.4426C60.3188 39.4043 57.5548 46.0774 52.644 51.0001C47.7332 55.9227 41.076 58.6933 34.1311 58.7049ZM34.1311 10.041C29.7131 10.041 25.3943 11.3547 21.7213 13.8158C18.0483 16.277 15.1862 19.775 13.4971 23.8672C11.808 27.9594 11.3678 32.4619 12.2323 36.805C13.0967 41.148 15.227 45.1364 18.3534 48.2655C21.4799 51.3946 25.4621 53.5237 29.7961 54.3835C34.1301 55.2432 38.6211 54.7949 42.7008 53.0953C46.7806 51.3958 50.2657 48.5213 52.7152 44.8356C55.1647 41.15 56.4685 36.8188 56.4616 32.3901C56.4431 26.4632 54.0831 20.785 49.8981 16.5981C45.7131 12.4112 40.0438 10.0566 34.1311 10.0497V10.041Z" fill="#FCB715"/>
<path d="M33.0395 62.8804L33.9128 80.7212C33.9246 80.9553 34.0041 81.1808 34.1416 81.3704C34.2791 81.56 34.4686 81.7054 34.687 81.7889C34.9055 81.8724 35.1434 81.8904 35.3719 81.8407C35.6004 81.791 35.8095 81.6758 35.9738 81.5091L43.9122 73.4116C44.0507 73.2706 44.2216 73.1658 44.4099 73.1065C44.5982 73.0472 44.7982 73.0352 44.9922 73.0715C45.1863 73.1078 45.3685 73.1913 45.5228 73.3147C45.6771 73.4381 45.7988 73.5976 45.8771 73.7792L50.7764 85.2733C50.8383 85.4193 50.9283 85.5517 51.0413 85.6628C51.1543 85.7739 51.2879 85.8617 51.4347 85.921C51.5815 85.9804 51.7385 86.0101 51.8968 86.0087C52.055 86.0072 52.2115 85.9745 52.3571 85.9124L62.1556 81.7104C62.3013 81.6483 62.4333 81.5581 62.5442 81.4449C62.655 81.3317 62.7426 81.1977 62.8018 81.0505C62.861 80.9034 62.8907 80.746 62.8892 80.5874C62.8877 80.4287 62.8551 80.2719 62.7931 80.1259L57.8851 68.6406C57.8066 68.4555 57.7754 68.2537 57.7944 68.0535C57.8134 67.8533 57.8819 67.661 57.9938 67.494C58.1057 67.3271 58.2574 67.1908 58.4352 67.0975C58.6129 67.0042 58.8111 66.9569 59.0117 66.9598L70.3647 66.811C70.6004 66.8132 70.8314 66.7457 71.0289 66.6168C71.2264 66.4879 71.3815 66.3034 71.4747 66.0865C71.568 65.8695 71.5953 65.6298 71.5532 65.3974C71.5111 65.165 71.4015 64.9502 71.238 64.7801L59.2912 52.2092L33.284 24.6777C33.1155 24.4997 32.897 24.3774 32.6574 24.327C32.4179 24.2766 32.1687 24.3006 31.9431 24.3956C31.7175 24.4906 31.526 24.6523 31.3943 24.859C31.2625 25.0658 31.1967 25.3079 31.2056 25.5531L33.0395 62.8804Z" fill="#FCB715"/>
<path d="M40.8731 41.1442C42.7909 39.388 44.0404 37.0185 44.4079 34.4408C44.7754 31.8632 44.2381 29.2376 42.8877 27.0133C41.5374 24.7889 39.4581 23.104 37.0053 22.2466C34.5526 21.3893 31.8789 21.4129 29.4415 22.3133C27.0042 23.2137 24.9547 24.935 23.6436 27.1828C22.3324 29.4306 21.8412 32.0652 22.2538 34.6359C22.6664 37.2067 23.9573 39.5539 25.9056 41.276C27.8539 42.9981 30.3386 43.9882 32.9347 44.0768" stroke="#231F20" stroke-width="4" stroke-linecap="round" stroke-linejoin="round"/>
<path d="M47.7896 48.5062C51.4164 45.1249 53.7519 40.5806 54.3932 35.6575C55.0344 30.7345 53.9412 25.7414 51.3022 21.54C48.6631 17.3386 44.6438 14.1924 39.9378 12.6443C35.2317 11.0962 30.1342 11.2433 25.5248 13.0603C20.9155 14.8772 17.0834 18.2501 14.6899 22.5967C12.2964 26.9434 11.4916 31.9912 12.4144 36.8692C13.3372 41.7471 15.9297 46.1492 19.7445 49.3157C23.5593 52.4822 28.3572 54.2146 33.3102 54.2139H33.4237" stroke="#231F20" stroke-width="4" stroke-linecap="round" stroke-linejoin="round"/>
<path d="M54.5316 55.6321C59.8113 50.6787 63.2017 44.0341 64.1181 36.8438C65.0345 29.6534 63.4195 22.3678 59.5517 16.243C55.6838 10.1182 49.8055 5.53798 42.9299 3.29195C36.0543 1.04592 28.6125 1.27482 21.8872 3.93919C15.162 6.60356 9.57478 11.5364 6.08883 17.8874C2.60287 24.2384 1.43661 31.6095 2.79109 38.7301C4.14557 45.8506 7.93592 52.2744 13.5087 56.8939C19.0815 61.5134 26.0875 64.0393 33.3189 64.036H33.9128" stroke="#231F20" stroke-width="4" stroke-linecap="round" stroke-linejoin="round"/>
<path d="M33.4238 54.2053L33.9128 64.0186" stroke="#231F20" stroke-width="4" stroke-linecap="round" stroke-linejoin="round"/>
<path d="M40.873 41.1442L32.3408 32.1538L32.9259 44.1119" stroke="#231F20" stroke-width="4" stroke-linecap="round" stroke-linejoin="round"/>
<path d="M54.5316 55.6321L65.3432 67.0737L52.8985 67.24L57.6493 78.4364L48.2176 82.4721L43.4406 71.2844L34.7075 80.196L33.9128 64.0185" stroke="#231F20" stroke-width="4" stroke-linecap="round" stroke-linejoin="round"/>
<path d="M54.5316 55.6321L47.7984 48.4976" stroke="#231F20" stroke-width="4" stroke-linecap="round" stroke-linejoin="round"/>
<path d="M33.4237 54.2053L32.9347 44.1118" stroke="#231F20" stroke-width="4" stroke-linecap="round" stroke-linejoin="round"/>
<path d="M47.7897 48.5062L40.873 41.144" stroke="#231F20" stroke-width="4" stroke-linecap="round" stroke-linejoin="round"/>
</g>
<defs>
<clipPath id="clip0_2007_140">
<rect width="71" height="86" fill="white" transform="translate(0.5)"/>
</clipPath>
</defs>
</svg>
