<svg width="105" height="50" viewBox="0 0 105 50" fill="none" xmlns="http://www.w3.org/2000/svg">
<g clip-path="url(#clip0_2039_649)">
<path d="M60.7234 41.5142H43.3027V10.2063H60.7234V41.5142Z" fill="#6C6BBD"/>
<path d="M44.4189 25.8577C44.4189 19.5068 47.3924 13.8496 52.023 10.2038C48.6368 7.53787 44.3632 5.94666 39.7186 5.94666C28.7231 5.94666 19.8101 14.861 19.8101 25.8577C19.8101 36.8545 28.7231 45.7689 39.7186 45.7689C44.3632 45.7689 48.6368 44.1777 52.023 41.5117C47.3924 37.8659 44.4189 32.2087 44.4189 25.8577Z" fill="#EB001B"/>
<path d="M84.2182 25.8577C84.2182 36.8545 75.3051 45.7689 64.3096 45.7689C59.665 45.7689 55.3914 44.1777 52.0039 41.5117C56.6358 37.8659 59.6093 32.2087 59.6093 25.8577C59.6093 19.5068 56.6358 13.8496 52.0039 10.2038C55.3914 7.53787 59.665 5.94666 64.3096 5.94666C75.3051 5.94666 84.2182 14.861 84.2182 25.8577Z" fill="#0099DF"/>
<path d="M69.9646 22.4537C70.2497 22.4537 70.6594 22.5083 70.9725 22.6313L70.5364 23.9648C70.2373 23.8417 69.9382 23.8012 69.6515 23.8012C68.7262 23.8012 68.2635 24.3994 68.2635 25.4743V29.1226H66.8475V22.6173H68.2495V23.4071C68.6172 22.8354 69.1484 22.4537 69.9646 22.4537ZM64.7336 23.9103H62.4203V26.8498C62.4203 27.5025 62.6508 27.9387 63.3596 27.9387C63.7273 27.9387 64.1899 27.8157 64.6105 27.5711L65.0187 28.7815C64.57 29.0946 63.8628 29.2862 63.2506 29.2862C61.576 29.2862 60.9918 28.3874 60.9918 26.8763V23.9103H59.6708V22.6173H60.9918V20.6436H62.4203V22.6173H64.7336V23.9103ZM46.618 25.2983C46.7692 24.3589 47.3393 23.7187 48.3472 23.7187C49.2585 23.7187 49.8442 24.2904 49.9938 25.2983H46.618ZM51.4643 25.87C51.4503 23.8417 50.1979 22.4537 48.3737 22.4537C46.4685 22.4537 45.135 23.8417 45.135 25.87C45.135 27.9372 46.523 29.2847 48.4703 29.2847C49.4501 29.2847 50.3474 29.0401 51.1372 28.3734L50.4424 27.325C49.8988 27.7611 49.204 28.0057 48.5513 28.0057C47.64 28.0057 46.8097 27.5836 46.6056 26.4137H51.4363C51.4503 26.2361 51.4643 26.06 51.4643 25.87ZM57.683 24.2779C57.2889 24.0318 56.4866 23.7187 55.6563 23.7187C54.8806 23.7187 54.4179 24.0053 54.4179 24.482C54.4179 24.9166 54.907 25.0397 55.5193 25.1207L56.186 25.2157C57.602 25.4213 58.4588 26.0195 58.4588 27.1629C58.4588 28.4014 57.3699 29.2862 55.4928 29.2862C54.4304 29.2862 53.4505 29.0136 52.6747 28.4419L53.3415 27.339C53.8182 27.7066 54.5269 28.0197 55.5068 28.0197C56.4726 28.0197 56.9898 27.7347 56.9898 27.2299C56.9898 26.8639 56.6222 26.6582 55.8464 26.5507L55.1797 26.4557C53.7231 26.2501 52.9333 25.5974 52.9333 24.5365C52.9333 23.2435 53.9957 22.4537 55.6423 22.4537C56.6767 22.4537 57.616 22.6859 58.2952 23.1345L57.683 24.2779ZM75.1381 23.7981C74.8468 23.7981 74.5773 23.8495 74.3265 23.9508C74.0772 24.0536 73.8607 24.1969 73.6784 24.3807C73.4962 24.5646 73.3528 24.7858 73.2485 25.0428C73.1441 25.2998 73.0927 25.5833 73.0927 25.8918C73.0927 26.2018 73.1441 26.4838 73.2485 26.7408C73.3528 26.9978 73.4962 27.219 73.6784 27.4028C73.8607 27.5867 74.0772 27.73 74.3265 27.8328C74.5773 27.9356 74.8468 27.9855 75.1381 27.9855C75.4294 27.9855 75.7004 27.9356 75.9497 27.8328C76.2005 27.73 76.4186 27.5867 76.6008 27.4028C76.7862 27.219 76.9295 26.9978 77.0355 26.7408C77.1398 26.4838 77.1912 26.2018 77.1912 25.8918C77.1912 25.5833 77.1398 25.2998 77.0355 25.0428C76.9295 24.7858 76.7862 24.5646 76.6008 24.3807C76.4186 24.1969 76.2005 24.0536 75.9497 23.9508C75.7004 23.8495 75.4294 23.7981 75.1381 23.7981ZM75.1381 22.4537C75.6428 22.4537 76.1101 22.541 76.5401 22.717C76.97 22.8915 77.3423 23.1329 77.6555 23.4398C77.9701 23.7467 78.2147 24.1097 78.3923 24.5272C78.5699 24.9462 78.6587 25.4011 78.6587 25.8918C78.6587 26.3825 78.5699 26.8374 78.3923 27.2564C78.2147 27.6739 77.9701 28.0384 77.6555 28.3453C77.3423 28.6522 76.97 28.8921 76.5401 29.0681C76.1101 29.2426 75.6428 29.3298 75.1381 29.3298C74.6333 29.3298 74.166 29.2426 73.7361 29.0681C73.3061 28.8921 72.9369 28.6522 72.6254 28.3453C72.3138 28.0384 72.0692 27.6739 71.8916 27.2564C71.714 26.8374 71.6253 26.3825 71.6253 25.8918C71.6253 25.4011 71.714 24.9462 71.8916 24.5272C72.0692 24.1097 72.3138 23.7467 72.6254 23.4398C72.9369 23.1329 73.3061 22.8915 73.7361 22.717C74.166 22.541 74.6333 22.4537 75.1381 22.4537ZM38.3493 25.87C38.3493 24.7266 39.0986 23.7872 40.323 23.7872C41.4929 23.7872 42.2827 24.6861 42.2827 25.87C42.2827 27.0539 41.4929 27.9512 40.323 27.9512C39.0986 27.9512 38.3493 27.0134 38.3493 25.87ZM43.6162 25.87V22.6173H42.2017V23.4071C41.7515 22.8214 41.0723 22.4537 40.147 22.4537C38.3228 22.4537 36.8943 23.8822 36.8943 25.87C36.8943 27.8562 38.3228 29.2862 40.147 29.2862C41.0723 29.2862 41.7515 28.9186 42.2017 28.3328V29.1226H43.6162V25.87ZM35.6419 29.1226V25.0397C35.6419 23.5021 34.662 22.4678 33.084 22.4537C32.2537 22.4397 31.3953 22.6983 30.7971 23.6112C30.3485 22.8899 29.6397 22.4537 28.6458 22.4537C27.9526 22.4537 27.2719 22.6578 26.7407 23.4196V22.6173H25.3262V29.1226H26.7547V25.5164C26.7547 24.387 27.3809 23.7872 28.3467 23.7872C29.2861 23.7872 29.7628 24.3994 29.7628 25.5023V29.1226H31.1913V25.5164C31.1913 24.387 31.8455 23.7872 32.7833 23.7872C33.7507 23.7872 34.2134 24.3994 34.2134 25.5023V29.1226H35.6419Z" fill="white"/>
</g>
<defs>
<clipPath id="clip0_2039_649">
<rect width="66" height="41" fill="white" transform="translate(19 5)"/>
</clipPath>
</defs>
</svg>
