<svg width="105" height="50" viewBox="0 0 105 50" fill="none" xmlns="http://www.w3.org/2000/svg">
<g clip-path="url(#clip0_2007_74)">
<path d="M61.0832 41.2327H43.6626V9.9248H61.0832V41.2327Z" fill="#FF5F00"/>
<path d="M44.7787 25.5762C44.7787 19.2253 47.7523 13.5681 52.3829 9.92232C48.9967 7.25637 44.723 5.66516 40.0785 5.66516C29.083 5.66516 20.1699 14.5795 20.1699 25.5762C20.1699 36.573 29.083 45.4873 40.0785 45.4873C44.723 45.4873 48.9967 43.8961 52.3829 41.2302C47.7523 37.5844 44.7787 31.9272 44.7787 25.5762Z" fill="#EB001B"/>
<path d="M84.578 25.5762C84.578 36.573 75.6649 45.4873 64.6694 45.4873C60.0249 45.4873 55.7513 43.8961 52.3638 41.2302C56.9956 37.5844 59.9692 31.9272 59.9692 25.5762C59.9692 19.2253 56.9956 13.5681 52.3638 9.92232C55.7513 7.25637 60.0249 5.66516 64.6694 5.66516C75.6649 5.66516 84.578 14.5795 84.578 25.5762Z" fill="#F79E1B"/>
<path d="M35.151 25.7023C35.151 24.8326 35.721 24.1181 36.6523 24.1181C37.5421 24.1181 38.1429 24.8018 38.1429 25.7023C38.1429 26.6028 37.5421 27.2865 36.6523 27.2865C35.721 27.2865 35.151 26.572 35.151 25.7023ZM39.1572 25.7023V23.2282H38.0813V23.829C37.74 23.3835 37.2222 23.1038 36.5184 23.1038C35.1309 23.1038 34.0432 24.1916 34.0432 25.7023C34.0432 27.2142 35.1309 28.3008 36.5184 28.3008C37.2222 28.3008 37.74 28.0211 38.0813 27.5756V28.1764H39.1572V25.7023ZM75.5144 25.7023C75.5144 24.8326 76.0844 24.1181 77.0157 24.1181C77.9067 24.1181 78.5063 24.8018 78.5063 25.7023C78.5063 26.6028 77.9067 27.2865 77.0157 27.2865C76.0844 27.2865 75.5144 26.572 75.5144 25.7023ZM79.5217 25.7023V21.2412H78.4447V23.829C78.1034 23.3835 77.5856 23.1038 76.8818 23.1038C75.4943 23.1038 74.4066 24.1916 74.4066 25.7023C74.4066 27.2142 75.4943 28.3008 76.8818 28.3008C77.5856 28.3008 78.1034 28.0211 78.4447 27.5756V28.1764H79.5217V25.7023ZM52.5121 24.0672C53.2053 24.0672 53.6508 24.502 53.7645 25.2675H51.1969C51.3118 24.553 51.7455 24.0672 52.5121 24.0672ZM52.5334 23.1038C51.0831 23.1038 50.0688 24.1596 50.0688 25.7023C50.0688 27.2758 51.1246 28.3008 52.6057 28.3008C53.351 28.3008 54.0335 28.1148 54.6342 27.6076L54.107 26.8102C53.6922 27.1408 53.1638 27.328 52.6673 27.328C51.9742 27.328 51.3426 27.0069 51.1874 26.1158H54.8617C54.8724 25.9819 54.8831 25.8469 54.8831 25.7023C54.8724 24.1596 53.9197 23.1038 52.5334 23.1038ZM65.5246 25.7023C65.5246 24.8326 66.0945 24.1181 67.0259 24.1181C67.9157 24.1181 68.5165 24.8018 68.5165 25.7023C68.5165 26.6028 67.9157 27.2865 67.0259 27.2865C66.0945 27.2865 65.5246 26.572 65.5246 25.7023ZM69.5307 25.7023V23.2282H68.4548V23.829C68.1124 23.3835 67.5958 23.1038 66.892 23.1038C65.5045 23.1038 64.4167 24.1916 64.4167 25.7023C64.4167 27.2142 65.5045 28.3008 66.892 28.3008C67.5958 28.3008 68.1124 28.0211 68.4548 27.5756V28.1764H69.5307V25.7023ZM59.4485 25.7023C59.4485 27.2036 60.4935 28.3008 62.0884 28.3008C62.8337 28.3008 63.3302 28.1349 63.8681 27.7107L63.3515 26.841C62.9475 27.1313 62.5233 27.2865 62.0564 27.2865C61.1974 27.2758 60.5658 26.655 60.5658 25.7023C60.5658 24.7497 61.1974 24.1288 62.0564 24.1181C62.5233 24.1181 62.9475 24.2733 63.3515 24.5636L63.8681 23.6939C63.3302 23.2697 62.8337 23.1038 62.0884 23.1038C60.4935 23.1038 59.4485 24.201 59.4485 25.7023ZM73.32 23.1038C72.6991 23.1038 72.2951 23.3941 72.0154 23.829V23.2282H70.949V28.1764H72.0261V25.4025C72.0261 24.5838 72.378 24.1288 73.0819 24.1288C73.2999 24.1288 73.5274 24.1596 73.7549 24.2532L74.0866 23.2389C73.8485 23.1453 73.538 23.1038 73.32 23.1038ZM44.4785 23.6216C43.9607 23.2804 43.2474 23.1038 42.4606 23.1038C41.207 23.1038 40.4001 23.7046 40.4001 24.688C40.4001 25.495 41.0009 25.9926 42.1075 26.1478L42.6159 26.2201C43.2059 26.3031 43.4844 26.4583 43.4844 26.7379C43.4844 27.1206 43.091 27.3386 42.3564 27.3386C41.6111 27.3386 41.0731 27.1005 40.7106 26.8208L40.2034 27.6586C40.7935 28.0934 41.5388 28.3008 42.3457 28.3008C43.7747 28.3008 44.6029 27.6278 44.6029 26.6858C44.6029 25.8161 43.9512 25.3611 42.8742 25.2058L42.367 25.1324C41.9014 25.0708 41.5281 24.9783 41.5281 24.6466C41.5281 24.284 41.88 24.0672 42.4701 24.0672C43.1017 24.0672 43.7131 24.3053 44.0129 24.4913L44.4785 23.6216ZM58.3607 23.1038C57.7398 23.1038 57.3358 23.3941 57.0573 23.829V23.2282H55.9909V28.1764H57.0668V25.4025C57.0668 24.5838 57.4187 24.1288 58.1226 24.1288C58.3406 24.1288 58.5681 24.1596 58.7956 24.2532L59.1274 23.2389C58.8892 23.1453 58.5787 23.1038 58.3607 23.1038ZM49.179 23.2282H47.4194V21.727H46.3317V23.2282H45.3281V24.2117H46.3317V26.4689C46.3317 27.6171 46.7772 28.3008 48.0498 28.3008C48.5166 28.3008 49.0546 28.1562 49.3958 27.9181L49.0854 26.9962C48.7643 27.1822 48.4124 27.2758 48.1327 27.2758C47.5948 27.2758 47.4194 26.9441 47.4194 26.4476V24.2117H49.179V23.2282ZM33.0917 28.1764V25.0708C33.0917 23.9013 32.3464 23.1145 31.1449 23.1038C30.5134 23.0932 29.8617 23.2899 29.4055 23.9842C29.0642 23.4356 28.5263 23.1038 27.7703 23.1038C27.2419 23.1038 26.7253 23.2591 26.3212 23.8385V23.2282H25.2441V28.1764H26.3307V25.4333C26.3307 24.5743 26.807 24.1181 27.5428 24.1181C28.2573 24.1181 28.6187 24.5838 28.6187 25.4227V28.1764H29.7065V25.4333C29.7065 24.5743 30.2029 24.1181 30.9174 24.1181C31.652 24.1181 32.004 24.5838 32.004 25.4227V28.1764H33.0917Z" fill="white"/>
</g>
<defs>
<clipPath id="clip0_2007_74">
<rect width="65" height="41" fill="white" transform="translate(20 5)"/>
</clipPath>
</defs>
</svg>
