<svg width="105" height="50" viewBox="0 0 105 50" fill="none" xmlns="http://www.w3.org/2000/svg">
<g clip-path="url(#clip0_2039_655)">
<mask id="mask0_2039_655" style="mask-type:luminance" maskUnits="userSpaceOnUse" x="12" y="13" width="81" height="24">
<path d="M92.8519 13.3334H12.521V36.0356H92.8519V13.3334Z" fill="white"/>
</mask>
<g mask="url(#mask0_2039_655)">
<path fill-rule="evenodd" clip-rule="evenodd" d="M83.8349 13.3334H68.5884C69.4081 18.3603 74.3263 23.0629 79.7363 23.0629H91.868C92.0319 22.5764 92.0319 21.9278 92.0319 21.4413C92.0319 16.9009 88.4252 13.3334 83.8349 13.3334Z" fill="url(#paint0_linear_2039_655)"/>
<path fill-rule="evenodd" clip-rule="evenodd" d="M69.9004 23.8738V36.0357H77.2777V29.5493H83.8354C87.4421 29.5493 90.5569 27.117 91.5406 23.8738H69.9004Z" fill="#0F754E"/>
<path fill-rule="evenodd" clip-rule="evenodd" d="M43.6699 13.3334V36.0356H50.2276C50.2276 36.0356 51.867 36.0356 52.6867 34.414C57.1131 25.6574 58.4246 23.0629 58.4246 23.0629H59.2443V36.0356H66.6216V13.3334H60.064C60.064 13.3334 58.4246 13.4955 57.6049 14.955C53.8342 22.4143 51.867 26.3061 51.867 26.3061H51.0473V13.3334H43.6699Z" fill="#0F754E"/>
<path fill-rule="evenodd" clip-rule="evenodd" d="M12.521 36.0356V13.3334H19.8983C19.8983 13.3334 22.0296 13.3334 23.1771 16.5766C26.1281 25.171 26.456 26.3061 26.456 26.3061C26.456 26.3061 27.1117 24.198 29.7348 16.5766C30.8824 13.3334 33.0136 13.3334 33.0136 13.3334H40.3909V36.0356H33.0136V23.8737H32.1939L28.0954 36.0356H24.8165L20.718 23.8737H19.8983V36.0356H12.521Z" fill="#0F754E"/>
</g>
</g>
<defs>
<linearGradient id="paint0_linear_2039_655" x1="92.0319" y1="19.4537" x2="68.5884" y2="19.4537" gradientUnits="userSpaceOnUse">
<stop stop-color="#1F5CD7"/>
<stop offset="1" stop-color="#02AEFF"/>
</linearGradient>
<clipPath id="clip0_2039_655">
<rect width="81" height="24" fill="white" transform="translate(12 13)"/>
</clipPath>
</defs>
</svg>
