<svg width="105" height="50" viewBox="0 0 105 50" fill="none" xmlns="http://www.w3.org/2000/svg">
<path d="M46.7337 35.3794H40.6045L44.4381 13.4065H50.5669L46.7337 35.3794Z" fill="#00579F"/>
<path d="M68.9522 13.9439C67.7433 13.4993 65.8258 13.0084 63.4548 13.0084C57.4021 13.0084 53.1398 16.0003 53.1137 20.2778C53.0634 23.4338 56.1653 25.1867 58.4854 26.239C60.8566 27.3142 61.6627 28.0161 61.6627 28.9745C61.6386 30.4466 59.7466 31.1251 57.9819 31.1251C55.5349 31.1251 54.2237 30.7753 52.2312 29.9563L51.4241 29.6052L50.5664 34.5377C52.0039 35.1447 54.6524 35.6835 57.4021 35.7071C63.8332 35.7071 68.0201 32.7615 68.0697 28.2031C68.0942 25.7018 66.4562 23.7852 62.9249 22.219C60.7812 21.2136 59.4684 20.5357 59.4684 19.507C59.4935 18.5719 60.5788 17.614 62.9987 17.614C64.9912 17.5671 66.4552 18.0111 67.5643 18.4554L68.1187 18.6887L68.9522 13.9439Z" fill="#00579F"/>
<path d="M77.0985 27.5952C77.6033 26.3329 79.5456 21.4473 79.5456 21.4473C79.5201 21.4943 80.0493 20.1617 80.352 19.3437L80.7803 21.237C80.7803 21.237 81.941 26.4966 82.1931 27.5952C81.2352 27.5952 78.3092 27.5952 77.0985 27.5952ZM84.6642 13.4065H79.9233C78.4613 13.4065 77.3506 13.8036 76.7198 15.2296L67.6157 35.3791H74.0469C74.0469 35.3791 75.1057 32.6671 75.3332 32.083C76.0388 32.083 82.2949 32.083 83.2026 32.083C83.3785 32.8545 83.9339 35.3791 83.9339 35.3791H89.6089L84.6642 13.4065Z" fill="#00579F"/>
<path d="M35.4849 13.4065L29.4824 28.3899L28.8265 25.3511C27.7168 21.8447 24.2364 18.0351 20.3525 16.1408L25.8506 35.3561H32.332L41.966 13.4065H35.4849Z" fill="#00579F"/>
<path d="M23.9087 13.4065H14.0474L13.9465 13.8505C21.6389 15.6739 26.7334 20.0691 28.8265 25.352L26.6828 15.2535C26.3299 13.8502 25.2453 13.4528 23.9087 13.4065Z" fill="#FAA61A"/>
</svg>
