<svg width="334" height="56" viewBox="0 0 334 56" fill="none" xmlns="http://www.w3.org/2000/svg">
<g clip-path="url(#clip0_2007_100)">
<path d="M0 25.774V10.8133C0 3.35058 3.08003 0.269409 11.1192 0.269409C19.1585 0.269409 22.5498 3.33887 22.5498 10.8133V25.774C22.5498 33.0493 19.0695 36.3179 11.1192 36.3179C3.16899 36.3179 0 33.0142 0 25.774ZM16.601 25.4577V11.1297C16.601 7.91962 15.8116 5.85769 11.1192 5.85769C6.8161 5.85769 5.99328 7.91962 5.99328 11.1297V25.4108C5.99328 28.7497 6.8161 30.6711 11.1637 30.6711C15.5114 30.6711 16.601 28.7497 16.601 25.4108V25.4577Z" fill="#231F20"/>
<path d="M28.4542 8.92716H33.6246L33.9248 11.7154C34.6636 10.7879 35.5881 10.0442 36.6321 9.53779C37.676 9.03139 38.8134 8.77485 39.9626 8.78658C44.1768 8.78658 48.302 11.1297 48.302 19.3305V35.9431H42.3977V19.3188C42.3977 15.8042 41.0078 14.4217 38.5282 14.4217C36.2265 14.4217 34.403 15.5933 34.403 19.1079V35.9431H28.4542V8.92716Z" fill="#231F20"/>
<path d="M73.5094 27.6602C73.5094 33.3305 70.2959 36.0368 63.5576 36.0368C56.8194 36.0368 53.6059 32.7916 53.6059 25.4928V19.3656C53.6059 12.5941 56.8194 8.82172 63.5576 8.82172C70.2959 8.82172 73.5094 12.0669 73.5094 19.3656V24.7196H59.5992V25.4108C59.5992 29.7573 61.2115 30.5891 63.6355 30.5891C66.4597 30.5891 67.6384 29.5347 67.6384 27.6602H73.5094ZM59.5992 19.5531H67.7273C67.7273 16.1673 67.1158 14.2928 63.7355 14.2928C60.3553 14.2928 59.5992 16.3079 59.5992 19.5531Z" fill="#231F20"/>
<path d="M103.131 19.0025C103.131 15.933 102.086 14.4217 99.1392 14.4217C95.8034 14.4217 94.8805 16.3431 94.8805 19.682V25.5397C94.8805 28.8786 95.7034 30.8 98.839 30.8C101.975 30.8 103.098 29.3824 103.142 26.1723H108.791C108.791 33.4477 105.577 36.3765 98.839 36.3765C92.1007 36.3765 88.8873 33.1313 88.8873 25.7154V19.6937C88.8873 12.4184 92.223 8.84515 99.0058 8.84515C105.789 8.84515 108.78 11.7272 108.78 19.0025H103.131Z" fill="#231F20"/>
<path d="M113.772 0.644348H119.721V25.9615C119.721 28.9372 120.244 29.8979 122.723 29.8979V35.9431C115.818 35.9431 113.828 33.7874 113.828 26.0552L113.772 0.644348Z" fill="#231F20"/>
<path d="M134.543 3.51462C134.543 8.06023 127.871 8.10709 127.871 3.51462C127.871 -1.07785 134.543 -1.17157 134.543 3.51462ZM134.109 36.0134H128.16V9.52466H134.109V36.0134Z" fill="#231F20"/>
<path d="M153.668 19.0025C153.668 15.933 152.623 14.4217 149.676 14.4217C146.34 14.4217 145.418 16.3431 145.418 19.682V25.5397C145.418 28.8786 146.24 30.8 149.376 30.8C152.512 30.8 153.635 29.3824 153.679 26.1723H159.328C159.328 33.4477 156.114 36.3765 149.376 36.3765C142.638 36.3765 139.424 33.1313 139.424 25.7154V19.6937C139.424 12.4184 142.76 8.84515 149.543 8.84515C156.326 8.84515 159.317 11.7272 159.317 19.0025H153.668Z" fill="#231F20"/>
<path d="M199.735 8.92717H204.905L205.295 11.6686C206.011 10.717 206.933 9.95921 207.983 9.45798C209.033 8.95676 210.181 8.72659 211.332 8.78658C213.856 8.78658 216.414 9.65353 217.637 12.2192C218.493 11.0557 219.603 10.1281 220.874 9.516C222.144 8.90387 223.536 8.62544 224.931 8.70457C230.235 8.70457 233.404 11.9498 233.404 19.2485V35.9431H227.455V19.3188C227.455 15.8042 226.11 14.4217 223.63 14.4217C221.406 14.4217 219.672 15.4293 219.594 19.2719V35.9431H213.645V19.3188C213.645 15.8042 212.3 14.4217 209.82 14.4217C207.519 14.4217 205.695 15.5933 205.695 19.1079V35.9431H199.746L199.735 8.92717Z" fill="#231F20"/>
<path d="M238.786 25.8677V19.3656C238.786 12.2661 241.999 8.82172 248.738 8.82172C255.476 8.82172 258.689 12.0669 258.689 19.3656V25.8677C258.689 33.1431 255.476 36.4117 248.738 36.4117C241.999 36.4117 238.786 33.1431 238.786 25.8677ZM252.685 25.5514V19.6937C252.685 16.3548 251.862 14.4334 248.738 14.4334C245.613 14.4334 244.779 16.3548 244.779 19.6937V25.5514C244.779 28.8903 245.602 30.8117 248.738 30.8117C251.873 30.8117 252.685 28.8903 252.685 25.5514Z" fill="#231F20"/>
<path d="M264.282 8.92719H269.453L269.753 11.6686C270.489 10.7478 271.409 10.009 272.447 9.50488C273.484 9.00071 274.615 8.74348 275.757 8.75146C279.972 8.75146 284.097 11.0946 284.097 19.2954V35.9431H278.192V19.3188C278.192 15.8042 276.803 14.4218 274.323 14.4218C272.021 14.4218 270.198 15.5933 270.198 19.1079V35.9431H264.249L264.282 8.92719Z" fill="#231F20"/>
<path d="M309.905 27.6602C309.905 33.3305 306.691 36.0368 299.953 36.0368C293.215 36.0368 290.001 32.7916 290.001 25.4928V19.3656C290.001 12.5941 293.215 8.82172 299.953 8.82172C306.691 8.82172 309.905 12.0669 309.905 19.3656V24.7196H295.994V25.4108C295.994 29.7573 297.607 30.5891 300.031 30.5891C302.855 30.5891 304.022 29.5347 304.022 27.6602H309.905ZM296.005 19.5531H304.134C304.134 16.1673 303.522 14.2928 300.142 14.2928C296.762 14.2928 295.994 16.3079 295.994 19.5531H296.005Z" fill="#231F20"/>
<path d="M334 8.92719L326.394 35.615L325.005 40.8284C323.359 46.9205 319.923 47.5531 314.997 45.5146L315.909 40.887C317.432 41.2502 319.034 41.9414 319.645 39.5632L320.646 35.7674L312.951 8.9389H319.167L321.469 17.046C322.326 20.7901 322.994 24.5795 323.47 28.3983C323.948 24.8837 324.582 20.7481 325.472 17.046L327.695 8.9389L334 8.92719Z" fill="#231F20"/>
<path d="M178.453 36.0016L169.557 25.5866V24.2276V35.9431H163.575V0.503723H169.557V18.5338H171.236L177.608 8.88029H184.279L176.051 21.0878L185.169 36.0251L178.453 36.0016Z" fill="#231F20"/>
<path d="M184.246 42.7732L178.909 42.7381L183.49 56H178.764L174.105 42.8084H169.569V25.5866L184.246 42.7732Z" fill="white"/>
</g>
<defs>
<clipPath id="clip0_2007_100">
<rect width="334" height="56" fill="white"/>
</clipPath>
</defs>
</svg>
